<svg xmlns="http://www.w3.org/2000/svg" viewBox="0 0 500 500"><defs><style>.cls-1{isolation:isolate;}.cls-2{mix-blend-mode:lighten;}.cls-3{fill:#35a45b;}.cls-4,.cls-6{fill:#fff;}.cls-5{fill:#cccbc9;}.cls-6{stroke:#b5b2b0;stroke-miterlimit:10;stroke-width:6px;}.cls-7{fill:#676362;}.cls-8{fill:#898480;}</style></defs><title>Untitled-1</title><g class="cls-1"><g id="Layer_1" data-name="Layer 1"><g class="cls-2"><path class="cls-3" d="M250,490.14c-8.26,0-16.62-.42-24.85-1.25-2.31-.23-4.71-.5-7.17-.82-1.25-.16-2.49-.33-3.72-.52-2.34-.34-4.75-.72-7.19-1.15A243.82,243.82,0,0,1,64.47,405,238.65,238.65,0,0,1,7.13,250c0-64.13,25.26-124.43,71.12-169.78a244.82,244.82,0,0,1,343.51,0c45.86,45.35,71.12,105.65,71.12,169.78,0,95.12-56.88,181.4-144.91,219.79-2.28,1-4.68,2-7.16,3A244,244,0,0,1,250,490.14Z"/><path class="cls-3" d="M250,14.86A238.49,238.49,0,0,1,418.24,83.77a234.24,234.24,0,0,1,51,74.74,233.2,233.2,0,0,1-20.91,221.42,237.39,237.39,0,0,1-102.34,85.28c-2.23,1-4.58,2-7,2.92a239,239,0,0,1-88.95,17c-8.09,0-16.29-.41-24.37-1.22-2.25-.22-4.61-.49-7-.81-1.1-.14-2.27-.3-3.58-.5h-.07c-2.26-.33-4.62-.7-7-1.12A238.81,238.81,0,0,1,68.27,401.71,232.56,232.56,0,0,1,12.13,250,231.33,231.33,0,0,1,30.8,158.52a234.24,234.24,0,0,1,51-74.74A238.49,238.49,0,0,1,250,14.86m0-10C113.11,4.86,2.13,114.62,2.13,250c0,120.6,88.08,220.87,204.08,241.33,2.42.42,4.86.82,7.31,1.17,1.27.19,2.55.37,3.82.53,2.42.31,4.86.59,7.31.84q12.51,1.25,25.35,1.27a249.55,249.55,0,0,0,92.66-17.71c2.45-1,4.9-2,7.31-3.05,87.11-38,147.91-124.17,147.91-224.37,0-135.38-111-245.14-247.87-245.14Z"/></g><rect class="cls-4" x="309.54" y="190.57" width="23.33" height="65.77"/><path class="cls-5" d="M324.75,330.09V472.46c-2.34,1.19-4.71,2.33-7.09,3.42V330.09Z"/><ellipse class="cls-6" cx="321.2" cy="124.81" rx="61.36" ry="65.76"/><path class="cls-5" d="M374.47,124.81c0,31.53-23.85,57.08-53.26,57.08s-53.27-25.55-53.27-57.08c0-19,8.62-35.76,21.9-46.15a50.42,50.42,0,0,1,62.73,0C365.84,89,374.47,105.85,374.47,124.81Z"/><path class="cls-7" d="M347.24,78.66a33.62,33.62,0,0,1-52.07,0c7.3-6.88,16.3-10.94,26-10.94S339.93,71.78,347.24,78.66Z"/><path class="cls-7" d="M278.15,96.91c7,6.62,11.52,16.66,11.52,27.9s-4.48,21.28-11.52,27.9a43.23,43.23,0,0,1,0-55.8Z"/><path class="cls-7" d="M295.17,171a33.62,33.62,0,0,1,52.07,0c-7.3,6.88-16.3,10.94-26,10.94S302.47,177.83,295.17,171Z"/><path class="cls-7" d="M364.26,152.71c-7-6.62-11.52-16.66-11.52-27.9s4.48-21.28,11.52-27.9a43.23,43.23,0,0,1,0,55.8Z"/><ellipse class="cls-7" cx="321.2" cy="124.81" rx="26.03" ry="27.9"/><path class="cls-8" d="M309.54,253.47h23.33a0,0,0,0,1,0,0v66.95a11.67,11.67,0,0,1-11.67,11.67h0a11.67,11.67,0,0,1-11.67-11.67V253.47a0,0,0,0,1,0,0Z"/><path class="cls-5" d="M220.28,330.28V482.81c-2.37-.35-4.74-.75-7.09-1.17V330.28Z"/><path class="cls-8" d="M205.06,252.19H228.4a0,0,0,0,1,0,0v66.43a11.67,11.67,0,0,1-11.67,11.67h0a11.67,11.67,0,0,1-11.67-11.67V252.19a0,0,0,0,1,0,0Z"/><path class="cls-4" d="M135.07,182.46c-4.91-.4-8.81-5.34-8.75-10.19.94-79.46-4.24-108.17-.22-109.82a24.36,24.36,0,0,1,4.13-.93c10.38-1.91,26.87-4.93,44.75,1A73.77,73.77,0,0,1,207,84.6c18.27,21.53,18.65,46.82,18.54,53.68l2.94,97.12c.21,6.71-5.29,10-12.12,10h0c-5.24-.06-9.68-2-11.26-6.08a9.63,9.63,0,0,1-.61-3.47l-.18-61.33a59.57,59.57,0,0,0-.33-6.13,7.52,7.52,0,0,1-.22-2.28c.59-2.77,4.91-4.25,5.17-3.83s-4,3.7-10.17,8.33C183.4,182.15,156.59,184.22,135.07,182.46Z"/><path class="cls-4" d="M205.09,239.58c-.21,10.26,0,12.61,0,12.61h23.38V235.89Z"/><rect class="cls-5" x="124.55" y="61.53" width="5.68" height="119.55" rx="2.52" ry="2.52"/></g></g></svg>