<svg id="Layer_1" data-name="Layer 1" xmlns="http://www.w3.org/2000/svg" viewBox="0 0 500 500"><defs><style>.cls-1,.cls-3{fill:#fff;}.cls-1{stroke:#35a45b;stroke-width:10px;}.cls-1,.cls-4,.cls-5{stroke-miterlimit:10;}.cls-2{fill:#005731;}.cls-4{fill:#5da4db;stroke:#005731;}.cls-5{fill:#8d694b;stroke:#8d694b;}</style></defs><title>Untitled-1</title><circle class="cls-1" cx="250" cy="252.19" r="235.96" transform="matrix(1, -0.07, 0.07, 1, -16.47, 17.47)"/><path class="cls-2" d="M313.21,84.87C313.21,56.8,284.91,34,250,34S186.79,56.8,186.79,84.87a42.94,42.94,0,0,0,7.41,23.87h0L250,215.57l55.81-106.83h0A42.94,42.94,0,0,0,313.21,84.87Z"/><ellipse class="cls-3" cx="250" cy="88.69" rx="40.44" ry="32.51"/><ellipse class="cls-4" cx="250" cy="330.09" rx="131.06" ry="117.25"/><path class="cls-5" d="M193,331.23s-6.08-.57-7.82,0-8.9-12.27-11.95-8.91-1.52-2.19-1.52-2.19H169.1s-13.47-.19-11.29-5.94-5.65-16.28-5.65-16.28H150s-.38,10.75,3.48,10.15-1.35,7.44-2.61,4-5.21-15.7-5.21-15.7l4.78-19.53,21.94-23.36,4.13-5.55h5.86l4.34,1.72.65,1.91,7.17.19v-2.68h-5.42s-1.51-1.53,0-2.3-5.22,0-5.22,0l5.22-5h5.42l2.61,3.83,4.78.19,2.61-2.11,2,1.15L203,248.12l-5.21.19-.43,2.3s7.38,1.72,7.6.57l.22-1.15,4.78-.77V247l-2-.38.43-2.87s8,.38,8.9.19-3.48,2.87-3.48,2.87l.22,2.49,3.37.77V246.4l3.36-2.3,5-.38s-.22-1.72,1.74-.77,7.84,4.4,7.84,4.4l1.93,4h3l-1.09,2.68-3.89.38L234,256.93,225.35,255l6.08-3.45-3.69-2.49-11.95,3.83,2.17,2.68-3.48.19v1.34h-2.82l.43-2.49-13.47,5.94s2.17,7.47,7,5.94,1.74,4.79,1.74,4.79,5.86-7.28,9.77-6.32-.87-6.51-.87-6.51l10.43-.38.87,4.79,5.86-2.49.65,6.32,4.34,1.72-1.3,3.26L234,273l4.56,3.64-.43,1.72-6.3-.77,1.09-4.4-5.43,1.12s-2.17-4.37-5-1.5,1.38,2.68,1.38,2.68l-1.16,1.72-2.82-1.15-4.13,4.21-12.16,12.06-9.12,7.09v6.7l-4.13-1.72-1.29-3.26-10.87-.77-6.73,3.45s-9.12,13.4,4.56,12.06l6.08-4.4.87,3.06-2,3.06,5.86,1.72.43,8.23,8.18,1.64L202,322l5.07,3.62,4.34,3.62,8-3.43,4.34,6.49h3.62s5.07,1.1,6.52,4.38,0,7.11,0,7.11,6.52-5.74,12.31,0l5.79,5.74s11.58,4.47,4.34,5.11-5.79,11.33-7.24,13.65-8.69,10.61-7.24,5.5-11.11-.39-5.19,3.64-3.29,14.75-9.54,16.41-6.26,5.93-6.26,5.93,4.34,3.9,1.45,6.84,13.24,3.45,4.81,10.21-14.22-10.48-14.22-11.11-8-12.51-6.52-17.42,7.24-34.92-8-28.53-7.24-22.68-7.24-22.68"/><path class="cls-5" d="M303.89,259.7v2.68c-7.6,4-3.26,9-3.26,9H305V275h2.82l1.3-3.06,2.82-4.6,4.34,4.6L314.75,275H297.59l-2.82,5.36h-6.08v4.21l2.39,2.11-2.39,2.49s-7.38-2.49-9.12,0,0,8.62,0,8.62H290l5.86-8,3.48.38,2.39-2.68s6.73,7.09,8.9,6.51-4.13,4.1-3.69,1.34.43,2.49.43,2.49l4.78-1,.65-3.64L306.72,288v-2.3l4.13.19,5.43,4.79v3.64l3.48,3.45s.22-6.89,3-6.7-.22,5.17,2.61,6.7,7.6,0,7.6,0l-4.56-9-8.69-20.68L305.9,258Z"/><path class="cls-5" d="M325,396h-4.13v-5.55l-3.91-5v-7.66l-3-4.21v-3.83l3.64-5.55-6.73-11.87v-7.66l-6.52-1.15-1.52-2.3H297.4l-1.09,2.68-6.52-.57-5.65,1L274.6,333v-7.09l1.74-1.91,1.44-3.06h-4v-3.26s9.56-7.28,10.21-7.66.22-5.74.22-5.74l6.08-3.53,7.82-.68h4.13l8-1.53,2,6.32s10,.38,10.64,2.3,2.17-3.45,2.17-3.45l5.43.57,4.78,3.83,7.6-.19s15.42,25.28,10.64,29.11S335,402.09,325,396Z"/></svg>